<svg width="25" height="24" viewBox="0 0 25 24" fill="none" xmlns="http://www.w3.org/2000/svg">
<path d="M12.0006 6.86829e-08C9.62728 -0.000253807 7.30715 0.703305 5.33367 2.02171C3.36019 3.34012 1.82201 5.21416 0.913647 7.4068C0.00528587 9.59945 -0.23245 12.0122 0.230507 14.34C0.693463 16.6677 1.83632 18.8059 3.51453 20.4842C5.19275 22.1624 7.33094 23.3052 9.65871 23.7682C11.9865 24.2311 14.3992 23.9934 16.5919 23.085C18.7845 22.1767 20.6586 20.6385 21.977 18.665C23.2954 16.6915 23.9989 14.3714 23.9987 11.9981C23.9987 8.81597 22.7346 5.76422 20.4845 3.51415C18.2345 1.26408 15.1827 6.8683e-08 12.0006 6.86829e-08ZM12.0006 18.1646C10.782 18.1646 9.59077 17.8032 8.57754 17.1262C7.5643 16.4492 6.77457 15.4869 6.30823 14.361C5.84189 13.2352 5.71987 11.9963 5.95761 10.8011C6.19535 9.60595 6.78217 8.50811 7.64386 7.64642C8.50555 6.78473 9.6034 6.19792 10.7986 5.96018C11.9938 5.72245 13.2327 5.84446 14.3585 6.3108C15.4844 6.77714 16.4466 7.56685 17.1237 8.58009C17.8007 9.59332 18.162 10.7846 18.162 12.0032C18.162 13.6373 17.5129 15.2045 16.3574 16.36C15.2019 17.5155 13.6347 18.1646 12.0006 18.1646Z" fill="url(#paint0_linear_1048_12798)"/>
<path d="M14.3734 0.236816C11.6571 0.784597 9.2141 2.2555 7.45906 4.3998C5.70403 6.5441 4.74512 9.22966 4.74512 12.0006C4.74512 14.7716 5.70403 17.4572 7.45906 19.6015C9.2141 21.7458 11.6571 23.2166 14.3734 23.7644C17.0897 23.2166 19.5327 21.7458 21.2877 19.6015C23.0427 17.4572 24.0016 14.7716 24.0016 12.0006C24.0016 9.22966 23.0427 6.5441 21.2877 4.3998C19.5327 2.2555 17.0897 0.784597 14.3734 0.236816ZM12.0051 18.1665C10.7865 18.1665 9.59523 17.8052 8.58199 17.1281C7.56876 16.4511 6.77903 15.4888 6.31269 14.363C5.84635 13.2371 5.72433 11.9983 5.96207 10.8031C6.19981 9.60788 6.78663 8.51004 7.64832 7.64835C8.51 6.78666 9.60786 6.19985 10.8031 5.96212C11.9983 5.72438 13.2371 5.84639 14.363 6.31273C15.4888 6.77907 16.4511 7.56878 17.1281 8.58202C17.8051 9.59525 18.1665 10.7865 18.1665 12.0051C18.1665 13.6392 17.5174 15.2064 16.3619 16.3619C15.2064 17.5174 13.6392 18.1665 12.0051 18.1665Z" fill="#0066FF"/>
<path d="M19.0338 18.167H12.5451C10.9344 18.167 9.62866 19.4724 9.62866 21.0828C9.62866 22.6931 10.9344 23.9985 12.5451 23.9985H19.0338C20.6445 23.9985 21.9502 22.6931 21.9502 21.0828C21.9502 19.4724 20.6445 18.167 19.0338 18.167Z" fill="#00B2FF"/>
<path d="M19.0491 23.8066C20.5534 23.8066 21.7729 22.5871 21.7729 21.0827C21.7729 19.5784 20.5534 18.3589 19.0491 18.3589C17.5447 18.3589 16.3252 19.5784 16.3252 21.0827C16.3252 22.5871 17.5447 23.8066 19.0491 23.8066Z" fill="#A0EAFF"/>
<path d="M19.0473 18.5521C19.548 18.5518 20.0375 18.7001 20.4539 18.9781C20.8704 19.2561 21.195 19.6513 21.3868 20.1138C21.5786 20.5763 21.6289 21.0853 21.5314 21.5764C21.4338 22.0676 21.1929 22.5187 20.8389 22.8729C20.4849 23.227 20.0339 23.4682 19.5429 23.566C19.0518 23.6637 18.5428 23.6137 18.0801 23.4221C17.6175 23.2306 17.2221 22.9061 16.9439 22.4898C16.6657 22.0735 16.5172 21.5841 16.5172 21.0834C16.5179 20.4125 16.7846 19.7692 17.2589 19.2947C17.7332 18.8201 18.3763 18.5531 19.0473 18.5521ZM19.0473 18.167C18.4704 18.167 17.9066 18.338 17.427 18.6585C16.9474 18.9789 16.5736 19.4344 16.3529 19.9673C16.1321 20.5002 16.0744 21.0866 16.1869 21.6523C16.2994 22.2181 16.5772 22.7377 16.9851 23.1456C17.3929 23.5535 17.9126 23.8312 18.4783 23.9438C19.044 24.0563 19.6304 23.9985 20.1633 23.7778C20.6962 23.557 21.1517 23.1833 21.4722 22.7037C21.7926 22.2241 21.9637 21.6602 21.9637 21.0834C21.9637 20.3099 21.6564 19.5681 21.1095 19.0212C20.5625 18.4743 19.8207 18.167 19.0473 18.167Z" fill="#00B2FF"/>
<defs>
<linearGradient id="paint0_linear_1048_12798" x1="18.7461" y1="19.7576" x2="3.00112" y2="1.64818" gradientUnits="userSpaceOnUse">
<stop stop-color="#00B2FF"/>
<stop offset="0.12" stop-color="#07B5FF"/>
<stop offset="0.3" stop-color="#1CBCFF"/>
<stop offset="0.52" stop-color="#3EC8FF"/>
<stop offset="0.76" stop-color="#6CD8FF"/>
<stop offset="1" stop-color="#A0EAFF"/>
</linearGradient>
</defs>
</svg>
